<?xml version="1.0" encoding="UTF-8"?>
<svg id="Warstwa_1" xmlns="http://www.w3.org/2000/svg" version="1.1" viewBox="0 0 595.28 595.28">
  <!-- Generator: Adobe Illustrator 29.1.0, SVG Export Plug-In . SVG Version: 2.1.0 Build 142)  -->
  <defs>
    <style>
      .st0, .st1 {
        fill: #f08484;
      }

      .st2 {
        fill: #dfe0e1;
      }

      .st3 {
        fill: #f0f1f2;
        stroke-width: 5px;
      }

      .st3, .st1 {
        stroke: #3b4898;
        stroke-miterlimit: 10;
      }

      .st4 {
        fill: #d3797a;
      }

      .st1 {
        stroke-width: 4px;
      }

      .st5 {
        fill: #3b4898;
      }
    </style>
  </defs>
  <path class="st3" d="M263.93,271.47l-68.02,30.82c-10.83,4.91-22.68-4.48-20.39-16.15l17.29-87.83c2.34-11.86,17.24-15.93,25.28-6.9l50.73,57.01c6.55,7.37,4.09,18.98-4.89,23.04Z"/>
  <path class="st3" d="M322.78,271.34l68.02,30.82c10.83,4.91,22.68-4.48,20.39-16.15l-17.29-87.83c-2.34-11.86-17.24-15.93-25.28-6.9l-50.73,57.01c-6.55,7.37-4.09,18.98,4.89,23.04Z"/>
  <path class="st0" d="M262.42,287.33l-61.55,32.21c-10.94,5.73-23.62-3.85-21.1-15.94l17.99-86.33c2.52-12.09,17.97-15.81,25.71-6.19l43.56,54.12c5.78,7.18,3.56,17.85-4.61,22.13Z"/>
  <path class="st0" d="M324.5,286.39l61.55,32.21c10.94,5.73,23.62-3.85,21.1-15.94l-17.99-86.33c-2.52-12.09-17.97-15.81-25.71-6.19l-43.56,54.12c-5.78,7.18-3.56,17.85,4.61,22.13Z"/>
  <path class="st4" d="M220.64,217.47c-5.1-9.93-16.59-6.87-19.12,5.1l-17.13,80.88,6.66.38,15.84-74.78c1.92-9.08,8.99-13.02,14.52-10.07l-.77-1.51Z"/>
  <path class="st4" d="M384.38,220.27c-1.03-11.03-12.55-12.17-19.17-1.89l-44.74,69.46,5.9,2.67,41.36-64.22c5.02-7.79,12.85-9.02,16.8-4.34l-.16-1.67Z"/>
  <path class="st3" d="M419.76,323.91c0,44.94-56.46,67.6-126.11,67.6s-126.11-22.66-126.11-67.6,57.38-107.46,127.03-107.46,125.19,62.52,125.19,107.46Z"/>
  <path class="st2" d="M292.43,367.61c-55.97,0-102.26-19.29-109.95-44.38-.93,2.7-1.42,5.46-1.42,8.28,0,28.59,49.73,51.76,111.08,51.76s111.08-23.18,111.08-51.76c0-2.51-.39-4.97-1.13-7.38-8.5,24.65-54.36,43.49-109.66,43.49Z"/>
  <path class="st5" d="M190.53,325.6c8.22-2.67,16.77-3.84,25.41-3.47,3.22.14,3.21-4.86,0-5-9.04-.38-18.13.86-26.74,3.65-3.05.99-1.74,5.82,1.33,4.82h0Z"/>
  <path class="st5" d="M200.28,344.81c2.81-3.08,6.2-5.56,9.84-7.59,1.72-.96,3.49-1.81,5.35-2.46.88-.31,1.78-.58,2.69-.78,1.04-.24,1.21-.27,2.19-.32,1.35-.07,2.5-1.1,2.5-2.5,0-1.3-1.15-2.57-2.5-2.5-4.4.24-8.63,2-12.45,4.08-4.09,2.23-8,5.08-11.15,8.53-.91,1-.99,2.55,0,3.54.92.92,2.62,1,3.54,0h0Z"/>
  <path class="st5" d="M395.16,320.64c-8.6-2.8-17.7-4.04-26.74-3.65-3.21.14-3.22,5.14,0,5,8.64-.37,17.19.8,25.41,3.47,3.07,1,4.38-3.83,1.33-4.82h0Z"/>
  <path class="st5" d="M387.61,341.13c-3.15-3.45-7.06-6.3-11.15-8.53-3.82-2.09-8.05-3.84-12.45-4.08-1.35-.07-2.5,1.2-2.5,2.5,0,1.42,1.15,2.43,2.5,2.5.21.01.41.03.62.04.07,0,.61.08.23.02.4.06.8.14,1.2.23.91.2,1.8.46,2.68.76,1.91.66,3.73,1.53,5.5,2.51,3.64,2.02,7.03,4.5,9.84,7.59.91,1,2.61.92,3.54,0,.99-.99.91-2.53,0-3.54h0Z"/>
  <path class="st5" d="M247.89,269.13c.17-.08.38-.14.54-.25-.35.14-.43.18-.26.11.07-.03.14-.06.21-.08.32-.12.65-.23.98-.33.66-.2,1.34-.33,2.02-.43l-.66.09c1.13-.14,2.26-.14,3.39,0l-.66-.09c.34.05.68.11,1.02.18,1.28.27,2.76-.38,3.08-1.75.29-1.26-.38-2.78-1.75-3.08-3.56-.76-7.16-.3-10.42,1.3-1.18.58-1.59,2.34-.9,3.42.78,1.21,2.16,1.51,3.42.9h0Z"/>
  <path class="st5" d="M242.48,294.98c4.21-6.54,15.6-7.21,21.19-2.61,4.44,3.65,10.84-2.68,6.36-6.36-10.22-8.41-27.75-7.32-35.33,4.43-3.15,4.88,4.64,9.4,7.77,4.54h0Z"/>
  <path class="st5" d="M341.92,266.24c-3.27-1.59-6.87-2.05-10.43-1.29-1.28.27-2.15,1.84-1.75,3.08.44,1.35,1.7,2.04,3.08,1.75.34-.07.68-.13,1.02-.18l-.66.09c1.18-.15,2.36-.15,3.54,0l-.66-.09c.66.1,1.31.23,1.95.42.31.09.61.19.91.31.09.04.18.07.27.11l-.32-.14c.18.06.36.16.54.25.61.3,1.25.44,1.93.25.58-.16,1.21-.61,1.49-1.15.59-1.12.36-2.81-.9-3.42h0Z"/>
  <path class="st5" d="M352.63,291.86c-7.59-11.73-25.12-12.81-35.33-4.38-4.47,3.69,1.93,10.03,6.36,6.36,5.6-4.62,16.97-3.97,21.2,2.56,3.14,4.85,10.93.34,7.77-4.54h0Z"/>
  <path class="st5" d="M309.54,334.64c0,6.89-6.58,12.47-14.71,12.47s-14.71-5.58-14.71-12.47,2.7-6.35,10.82-6.35,18.59-.53,18.59,6.35Z"/>
  <path class="st5" d="M296.36,325.4c2.55,5.98-14.11,8.53-21.65,8.53s-19.1-7.12-13.65-11.51c5.18-4.17,7.58,7.35,15.06,6.55,7.53-.8,17.53-9.92,20.24-3.57Z"/>
  <path class="st5" d="M292.4,325.85c-2.55,6.24,14.11,8.9,21.65,8.9,7.54,0,19.1-7.43,13.65-12-5.18-4.35-7.58,7.66-15.06,6.83-7.53-.84-17.53-10.35-20.24-3.73Z"/>
  <path class="st1" d="M292.3,323.23l-6.14-7.35c-1.2-1.44-.22-3.63,1.65-3.69l11.82-.37c1.87-.06,2.99,2.07,1.88,3.58l-5.67,7.71c-.86,1.17-2.6,1.23-3.53.11Z"/>
  <path class="st0" d="M294.57,331.63c-4.13,0-7.89,1.75-10.77,4.62,1.42,4.41,5.7,7.62,10.77,7.62s9.35-3.21,10.77-7.62c-2.88-2.86-6.64-4.62-10.77-4.62Z"/>
  <path class="st3" d="M476.58,372.49c0-9.81-8.64-17.76-19.29-17.76-3.38,0-6.56.81-9.33,2.22-1.85-12.8-10.36-22.45-24.5-22.45-12.23,0-21.13,7.23-24.7,17.47-1.42-.33-2.9-.53-4.42-.53-10.72,0-19.41,8.69-19.41,19.41s8.69,19.41,19.41,19.41c1.43,0,2.82-.16,4.16-.46,2.34.18,4.97.34,7.96.46,16.83.68,37.84,2.46,51.31-.02,10.43-.24,18.81-8.08,18.81-17.74Z"/>
  <path class="st3" d="M101.26,295.68c0-9.81,8.64-17.76,19.29-17.76,3.38,0,6.56.81,9.33,2.22,1.85-12.8,10.36-22.45,24.5-22.45,12.23,0,21.13,7.23,24.7,17.47,1.42-.33,2.9-.53,4.42-.53,10.72,0,19.41,8.69,19.41,19.41s-8.69,19.41-19.41,19.41c-1.43,0-2.82-.16-4.16-.46-2.34.18-4.97.34-7.96.46-16.83.68-37.84,2.46-51.31-.02-10.43-.24-18.81-8.08-18.81-17.74Z"/>
  <ellipse class="st2" cx="237.8" cy="321.51" rx="12.02" ry="6.95"/>
  <ellipse class="st2" cx="346.63" cy="321.37" rx="12.02" ry="6.95"/>
  <path class="st2" d="M115.17,301.67c0-7.15,5.38-12.94,12.02-12.94.85,0,1.68.1,2.48.28-2.14-1.74-4.99-2.81-8.13-2.81-6.64,0-12.02,4.76-12.02,10.63,0,4.09,2.61,7.63,6.43,9.41-.5-1.42-.78-2.95-.78-4.56Z"/>
  <path class="st2" d="M387.11,375.12c0-7.15,5.38-12.94,12.02-12.94.85,0,1.68.1,2.48.28-2.14-1.74-4.99-2.81-8.13-2.81-6.64,0-12.02,4.76-12.02,10.63,0,4.09,2.61,7.63,6.43,9.41-.5-1.42-.78-2.95-.78-4.56Z"/>
  <path class="st2" d="M142.65,278.92c.87-6.76,9.64-11.38,16.23-10.54.84.11,1.65.31,2.43.58-1.91-1.92-4.78-2.6-7.72-3.7-8.47-3.17-15.87,5.44-16.58,11-.44,3.44,1.22,6.73,4.11,8.95.4.3.96-.03.9-.52-.13-1.01.5-4.71.64-5.77Z"/>
  <path class="st2" d="M414.09,352.36c.73-5.69,10.03-9.33,17.14-8.42.91.12,1.79.31,2.63.56-2.11-1.68-5.22-2.34-8.42-3.36-9.21-2.93-16.91,4.13-17.51,8.8-.37,2.89,1.51,5.73,4.69,7.69.44.27,1.04,0,.95-.41-.17-.86.4-3.96.52-4.86Z"/>
</svg>